{"title":"The Little Prince 2015 HC HDRIP x264 AC3 TiTAN","uid":12797379,"size":854542411,"categoryP":"video","categoryS":"movies","magnet":"?xt=urn:btih:43287d7e66e9f973abdd814dbbf199e5daeca34a&amp;dn=The+Little+Prince+2015+HC+HDRIP+x264+AC3+TiTAN&amp;tr=udp%3A%2F%2Ftracker.leechers-paradise.org%3A6969&amp;tr=udp%3A%2F%2Fzer0day.ch%3A1337&amp;tr=udp%3A%2F%2Fopen.demonii.com%3A1337&amp;tr=udp%3A%2F%2Ftracker.coppersurfer.tk%3A6969&amp;tr=udp%3A%2F%2Fexodus.desync.com%3A6969","seeders":0,"leechers":0,"uploader":"makintos13","files":2,"time":1447992877,"description":"Screens:\r\n \nhttp://imgmak.com/XE\r\n \nhttp://imgmak.com/Xh\r\n \nhttp://imgmak.com/Xl\r\n \nhttp://imgmak.com/XV\r\n \nhttp://imgmak.com/Xe\r\n \nhttp://imgmak.com/Xg\r\n\r\n:::::::::::::::::::::\r\n\r\n \nhttp://www.imdb.com/title/tt1754656/\r\n\r\nSource: 1080p\r\n\r\nCute little movie, with an all star cast.. It's all in English other than HC Chinese subs. subs are very small thou.. Enjoy\r\n\r\nGeneral\r\n\r\nFormat : Matroska\r\nFormat version : Version 2\r\nFile size : 815 MiB\r\nDuration : 1h 46mn\r\nOverall bit rate mode : Variable\r\nOverall bit rate : 1 072 Kbps\r\n\r\nVideo\r\nID : 1\r\nFormat : AVC\r\nFormat/Info : Advanced Video Codec\r\nFormat profile :   \r\nFormat settings, CABAC : Yes\r\nFormat settings, ReFrames : 3 frames\r\nCodec ID : V_MPEG4/ISO/AVC\r\nDuration : 1h 46mn\r\nBit rate mode : Variable\r\nBit rate : 859 Kbps\r\nMaximum bit rate : 40.0 Mbps\r\nWidth : 720 pixels\r\nHeight : 304 pixels\r\nDisplay aspect ratio : 2.35:1\r\nFrame rate mode : Constant\r\nFrame rate : 24.000 fps\r\nColor space : YUV\r\nChroma subsampling : 4:2:0\r\nBit depth : 8 bits\r\nScan type : Progressive\r\nBits/(Pixel*Frame) : 0.164\r\nStream size : 653 MiB (80%)\r\nDefault : Yes\r\nForced : No\r\nColor primaries : BT.709\r\nTransfer characteristics : BT.709\r\nMatrix coefficients : BT.709\r\n\r\nAudio\r\nID : 2\r\nFormat : AC-3\r\nFormat/Info : Audio Coding 3\r\nMode extension : CM (complete main)\r\nFormat settings, Endianness : Big\r\nCodec ID : A_AC3\r\nDuration : 1h 46mn\r\nBit rate mode : Constant\r\nBit rate : 192 Kbps\r\nChannel(s) : 2 channels\r\nChannel positions : Front: L R\r\nSampling rate : 44.1 KHz\r\nBit depth : 16 bits\r\nCompression mode : Lossy\r\nStream size : 146 MiB (18%)\r\nDefault : Yes\r\nForced : No","torrent":{"xt":"urn:btih:43287d7e66e9f973abdd814dbbf199e5daeca34a","amp;dn":"The+Little+Prince+2015+HC+HDRIP+x264+AC3+TiTAN","amp;tr":["udp%3A%2F%2Ftracker.leechers-paradise.org%3A6969","udp%3A%2F%2Fzer0day.ch%3A1337","udp%3A%2F%2Fopen.demonii.com%3A1337","udp%3A%2F%2Ftracker.coppersurfer.tk%3A6969","udp%3A%2F%2Fexodus.desync.com%3A6969"],"infoHash":"43287d7e66e9f973abdd814dbbf199e5daeca34a","infoHashBuffer":{"type":"Buffer","data":[67,40,125,126,102,233,249,115,171,221,129,77,187,241,153,229,218,236,163,74]},"announce":[],"urlList":[]}}